<?xml version="1.0" encoding="UTF-8" standalone="no"?>
<svg
   version="1.1"
   viewBox="0 0 196 174"
   id="svg4"
   sodipodi:docname="key-1294351.svg"
   inkscape:version="1.1.1 (3bf5ae0d25, 2021-09-20)"
   xmlns:inkscape="http://www.inkscape.org/namespaces/inkscape"
   xmlns:sodipodi="http://sodipodi.sourceforge.net/DTD/sodipodi-0.dtd"
   xmlns="http://www.w3.org/2000/svg"
   xmlns:svg="http://www.w3.org/2000/svg">
  <defs
     id="defs8" />
  <sodipodi:namedview
     id="namedview6"
     pagecolor="#ffffff"
     bordercolor="#666666"
     borderopacity="1.0"
     inkscape:pageshadow="2"
     inkscape:pageopacity="0.0"
     inkscape:pagecheckerboard="0"
     showgrid="true"
     inkscape:zoom="2.4655172"
     inkscape:cx="108.29371"
     inkscape:cy="98.356645"
     inkscape:window-width="1920"
     inkscape:window-height="1017"
     inkscape:window-x="1912"
     inkscape:window-y="-8"
     inkscape:window-maximized="1"
     inkscape:current-layer="svg4">
    <inkscape:grid
       type="xygrid"
       id="grid821" />
  </sodipodi:namedview>
  <path
     d="M 173.84843,1.5724302 76.322969,72.572576 C 69.342607,69.18212 61.365068,67.387172 53.188078,67.387172 c -29.716353,0 -53.84842,24.132072 -53.84842,53.848428 0,29.71635 24.132067,53.84842 53.84842,53.84842 29.716367,0 53.848422,-24.13207 53.848422,-53.84842 0,-1.59551 0,-2.99157 -0.19944,-4.58709 L 120,107.2749 l -4.98596,-8.974743 9.97194,-6.980351 -1.99439,-11.966316 7.97754,-5.983159 15.95509,6.980351 5.98316,-4.985965 -1.99439,-12.963509 7.97754,-5.983159 7.97755,3.988772 4.98596,-2.99158 -0.99719,-8.974737 5.98316,-4.985965 11.96634,5.983157 5.98315,-3.988771 L 190.80071,11.544361 101.05335,76.36191 97.064569,69.381559 187.80914,3.5668164 Z M 53.188078,75.364717 c 25.328711,0 45.870892,20.542176 45.870892,45.870883 0,25.3287 -20.542181,45.87088 -45.870892,45.87088 -25.328697,0 -45.8708816,-20.54218 -45.8708816,-45.87088 0,-25.328707 20.5421846,-45.870883 45.8708816,-45.870883 z m -0.997192,5.983157 c -22.536556,0 -40.884904,18.348353 -40.884904,40.884926 0,22.53655 18.348348,40.8849 40.884904,40.8849 22.536569,0 40.884917,-18.34835 40.884917,-40.8849 0,-22.536573 -18.348348,-40.884926 -40.884917,-40.884926 z M 41.221771,113.25805 c 8.775295,0 15.955093,7.1798 15.955093,15.95509 0,8.7753 -7.179798,15.95508 -15.955093,15.95508 -8.775302,0 -15.955097,-7.17978 -15.955097,-15.95508 0,-8.77529 7.179795,-15.95509 15.955097,-15.95509 z"
     id="path2"
     style="stroke-width:0.997192" />
</svg>
